<svg xmlns="http://www.w3.org/2000/svg" viewBox="0 0 780.53 183.84"><defs><style>.a{fill:#3f3f3f;}.b{fill:#676767;}.c{fill:#191919;}</style></defs><path class="a" d="M465.76,103.57c-1.81,0-1.75,1.49-1.79,2.74a49.71,49.71,0,0,1-1.32,10.16c-2.17,8.81-6.85,13-15.81,14.17-7.39,1-14.81.36-22.21.38-8.1,0-12.06-3.75-12.13-11.89-.28-32.73-.43-65.47-.67-98.2a8.57,8.57,0,0,1,2.05-5.64,15.59,15.59,0,0,1,11.52-5.9c1.52-.12,2.31-.75,2.21-2.35s-1.14-1.79-2.37-1.81l-1.37,0q-28.58,0-57.15,0a17.92,17.92,0,0,0-4.07.42c-23.76,5.5-34,34.06-19.27,53.47,5.05,6.63,11.76,11,19.39,14.13,8.83,3.6,17.23,8,24.2,14.57,7.2,6.83,11.54,14.91,8.37,25.13-5.16,16.66-28.56,24.38-42.75,14.25-7.88-5.62-11.14-13.9-13-22.91-.41-2-1.12-3.23-3.31-3s-1.72,2.1-1.73,3.45c0,8.9,0,17.8,0,26.69,0,4.57,0,4.6,4.51,4.6h61.6v0c4.45,0,8.9,0,13.34,0l48.94.1c1.8,0,3.75.34,3.82-2.53.21-9.12.54-18.24.8-27.36C467.56,105,467.63,103.52,465.76,103.57ZM403,58.48c0,5.8,0,11.61,0,17.41,0,2.39-.92,3-2.81,1.31-7.48-6.56-16.18-10.85-25.39-14.47a40.71,40.71,0,0,1-19.13-14.94,29.06,29.06,0,0,1-4.2-24.18c1.45-6,6.07-9.53,11.5-11.82,17.58-7.39,38.54,2.1,39.4,21.14C402.69,40.62,403.19,49,403,58.48Z" transform="translate(-13.38 -5.17)"/><path class="b" d="M374.84,20.54c-6.39.07-11.47,5.92-11.53,13.27S368.48,47.27,375,47.22s11.52-5.9,11.55-13.22S381.28,20.47,374.84,20.54Z" transform="translate(-13.38 -5.17)"/><path class="c" d="M14.3,187.75c-.78-.34-.92-.58-.92-1.66,0-2.67.19-5.59.24-6.36s.19-1.27.58-1.27.49.44.49.83a10,10,0,0,0,.44,2.48c1.06,3.6,3.93,4.91,6.95,4.91,4.37,0,6.51-3,6.51-5.54,0-2.39-.73-4.62-4.76-7.78l-2.24-1.75c-5.35-4.18-7.19-7.59-7.19-11.52,0-5.35,4.47-9.19,11.23-9.19a23.53,23.53,0,0,1,6.46.82c.44.1.68.25.68.59,0,.63-.19,2-.19,5.83,0,1.07-.15,1.46-.54,1.46s-.48-.29-.48-.87a5.9,5.9,0,0,0-1.27-3.21,6.15,6.15,0,0,0-5.3-2.39c-3.59,0-5.78,2.09-5.78,5,0,2.24,1.12,3.94,5.15,7l1.36,1c5.89,4.43,8,7.78,8,12.4A9.81,9.81,0,0,1,29.13,187a14.11,14.11,0,0,1-7.73,2A16.91,16.91,0,0,1,14.3,187.75Z" transform="translate(-13.38 -5.17)"/><path class="c" d="M43.18,165.68c0-7.39,0-8.75-.1-10.31s-.49-2.43-2.09-2.77a9.79,9.79,0,0,0-1.9-.15c-.53,0-.82-.09-.82-.43s.34-.44,1.07-.44c2.57,0,5.64.14,7.09.14,1.17,0,4.23-.14,6-.14.73,0,1.07.1,1.07.44s-.29.43-.77.43a7.05,7.05,0,0,0-1.41.15c-1.32.24-1.71,1.07-1.8,2.77s-.1,2.92-.1,10.31v6.8c0,7.05,1.41,10,3.79,12a9,9,0,0,0,6.08,2A9.56,9.56,0,0,0,66,183.81c2.67-2.67,2.82-7.05,2.82-12.06v-6.07c0-7.39,0-8.75-.1-10.31s-.49-2.43-2.09-2.77a9.21,9.21,0,0,0-1.75-.15c-.54,0-.83-.09-.83-.43s.34-.44,1-.44c2.48,0,5.55.14,5.59.14.59,0,3.65-.14,5.55-.14.68,0,1,.1,1,.44s-.29.43-.88.43a7.21,7.21,0,0,0-1.41.15c-1.31.24-1.7,1.07-1.8,2.77S73,158.29,73,165.68v5.2c0,5.4-.54,11.13-4.62,14.63A14.48,14.48,0,0,1,58.3,189c-2.58,0-7.25-.14-10.8-3.35-2.48-2.24-4.32-5.84-4.32-12.89Z" transform="translate(-13.38 -5.17)"/><path class="c" d="M89.41,181.72c.1,3.79.73,5.06,1.7,5.4a7.78,7.78,0,0,0,2.53.34c.53,0,.83.09.83.39s-.44.48-1.12.48c-3.16,0-5.11-.14-6-.14-.44,0-2.72.14-5.25.14-.63,0-1.07-.05-1.07-.48s.29-.39.78-.39a8.42,8.42,0,0,0,2.19-.25c1.26-.39,1.45-1.8,1.5-6l.44-28.78c0-1,.15-1.66.63-1.66s1,.63,1.8,1.51c.58.63,8,8.56,15.07,15.6,3.31,3.31,9.87,10.31,10.7,11.09h.24l-.49-21.83c0-3-.48-3.89-1.65-4.37a7.75,7.75,0,0,0-2.58-.3c-.58,0-.77-.14-.77-.43s.53-.44,1.26-.44c2.53,0,4.86.14,5.88.14.54,0,2.38-.14,4.77-.14.63,0,1.11,0,1.11.44s-.29.43-.87.43a5.14,5.14,0,0,0-1.46.15c-1.36.39-1.75,1.41-1.8,4.13l-.53,30.68c0,1.07-.2,1.51-.63,1.51s-1.12-.54-1.66-1.07c-3.06-2.92-9.28-9.29-14.34-14.3C95.29,168.3,89.9,162.23,89,161.3h-.14Z" transform="translate(-13.38 -5.17)"/><path class="c" d="M135.45,181.72c.1,3.79.73,5.06,1.7,5.4a7.78,7.78,0,0,0,2.53.34c.53,0,.83.09.83.39s-.44.48-1.12.48c-3.16,0-5.11-.14-6-.14-.44,0-2.72.14-5.25.14-.63,0-1.07-.05-1.07-.48s.29-.39.78-.39a8.47,8.47,0,0,0,2.19-.25c1.26-.39,1.45-1.8,1.5-6l.44-28.78c0-1,.15-1.66.63-1.66s1,.63,1.8,1.51c.58.63,8,8.56,15.07,15.6,3.31,3.31,9.87,10.31,10.7,11.09h.24l-.49-21.83c-.05-3-.48-3.89-1.65-4.37a7.75,7.75,0,0,0-2.58-.3c-.58,0-.77-.14-.77-.43s.53-.44,1.26-.44c2.53,0,4.86.14,5.88.14.54,0,2.38-.14,4.77-.14.63,0,1.11,0,1.11.44s-.29.43-.87.43a5.14,5.14,0,0,0-1.46.15c-1.36.39-1.75,1.41-1.8,4.13l-.53,30.68c0,1.07-.2,1.51-.63,1.51s-1.12-.54-1.66-1.07c-3.06-2.92-9.28-9.29-14.34-14.3-5.3-5.25-10.69-11.32-11.57-12.25h-.14Z" transform="translate(-13.38 -5.17)"/><path class="c" d="M184.21,175.74a10.22,10.22,0,0,0-1.12-5.1c-.34-.78-6.85-11.48-8.55-14a11.86,11.86,0,0,0-3.36-3.54,4.92,4.92,0,0,0-2-.64c-.39,0-.73-.09-.73-.43s.34-.44.93-.44c.87,0,4.52.14,6.12.14,1,0,3-.14,5.2-.14.49,0,.73.14.73.44s-.34.34-1.07.53a.89.89,0,0,0-.68.88,4.52,4.52,0,0,0,.59,1.65c.68,1.46,7.48,13.17,8.26,14.54.49-1.17,6.61-11.87,7.29-13.37a6.28,6.28,0,0,0,.68-2.53,1.16,1.16,0,0,0-1-1.22c-.44-.09-.87-.19-.87-.48s.24-.44.82-.44c1.61,0,3.16.14,4.57.14,1.07,0,4.28-.14,5.21-.14.53,0,.87.1.87.39s-.39.48-.92.48A5.25,5.25,0,0,0,203,153a7.21,7.21,0,0,0-2.63,2.38,154.26,154.26,0,0,0-9.28,15.46,11.62,11.62,0,0,0-.73,4.86v4c0,.77,0,2.82.14,4.86.1,1.41.54,2.48,2,2.67a19.9,19.9,0,0,0,2.43.2c.53,0,.78.14.78.39s-.39.48-1,.48c-3.06,0-6.12-.14-7.43-.14s-4.28.14-6.08.14c-.68,0-1.07-.1-1.07-.48s.24-.39.78-.39a7.62,7.62,0,0,0,1.7-.2c1-.19,1.41-1.26,1.51-2.67.14-2,.14-4.09.14-4.86Z" transform="translate(-13.38 -5.17)"/><path class="c" d="M225.93,165.68c0-7.39,0-8.75-.1-10.31s-.59-2.48-1.65-2.72a6.76,6.76,0,0,0-1.75-.2c-.49,0-.78-.09-.78-.48s.39-.39,1.16-.39c1.85,0,4.91.14,6.32.14,1.22,0,4.09-.14,5.93-.14.64,0,1,.1,1,.39s-.3.48-.78.48a8,8,0,0,0-1.46.15c-1.31.24-1.7,1.07-1.8,2.77s-.1,2.92-.1,10.31v8.55c0,4.72,0,8.56.2,10.65.14,1.31.48,2.19,1.94,2.38a19.92,19.92,0,0,0,2.48.2c.54,0,.78.14.78.39s-.39.48-.92.48c-3.21,0-6.28-.14-7.59-.14-1.12,0-4.18.14-6.12.14-.64,0-1-.14-1-.48s.2-.39.78-.39a7.73,7.73,0,0,0,1.75-.2c1-.19,1.27-1,1.41-2.43.25-2,.25-5.88.25-10.6Z" transform="translate(-13.38 -5.17)"/><path class="c" d="M250.62,181.72c.1,3.79.73,5.06,1.7,5.4a7.78,7.78,0,0,0,2.53.34c.54,0,.83.09.83.39s-.44.48-1.12.48c-3.16,0-5.1-.14-6-.14-.44,0-2.72.14-5.25.14-.63,0-1.07-.05-1.07-.48s.29-.39.78-.39a8.42,8.42,0,0,0,2.19-.25c1.26-.39,1.46-1.8,1.5-6l.44-28.78c0-1,.15-1.66.63-1.66s1,.63,1.8,1.51c.59.63,8,8.56,15.07,15.6,3.31,3.31,9.87,10.31,10.7,11.09h.24l-.48-21.83c-.05-3-.49-3.89-1.66-4.37a7.69,7.69,0,0,0-2.57-.3c-.59,0-.78-.14-.78-.43s.53-.44,1.26-.44c2.53,0,4.86.14,5.88.14.54,0,2.39-.14,4.77-.14.63,0,1.12,0,1.12.44s-.29.43-.88.43a5.21,5.21,0,0,0-1.46.15c-1.36.39-1.75,1.41-1.8,4.13l-.53,30.68c0,1.07-.19,1.51-.63,1.51s-1.12-.54-1.65-1.07c-3.07-2.92-9.29-9.29-14.35-14.3-5.3-5.25-10.69-11.32-11.57-12.25h-.14Z" transform="translate(-13.38 -5.17)"/><path class="c" d="M300.41,154.3l-7.25.2c-2.82.09-4,.34-4.71,1.41a5.64,5.64,0,0,0-.83,1.7c-.1.39-.24.58-.54.58s-.43-.24-.43-.78c0-.78.92-5.2,1-5.59.14-.63.29-.92.58-.92a11.77,11.77,0,0,0,2.09.58c1.41.15,3.26.24,4.86.24h19.26a23,23,0,0,0,3.35-.24,13.21,13.21,0,0,1,1.31-.24c.34,0,.39.29.39,1,0,1-.15,4.37-.15,5.64,0,.48-.14.78-.43.78s-.49-.25-.54-1l-.05-.53c-.09-1.26-1.41-2.63-5.73-2.72l-6.13-.15v19.93c0,4.48,0,8.32.25,10.41.14,1.36.43,2.43,1.89,2.62a19.92,19.92,0,0,0,2.48.2c.54,0,.78.14.78.39s-.39.48-.93.48c-3.2,0-6.27-.14-7.63-.14-1.12,0-4.18.14-6.12.14-.64,0-1-.14-1-.48s.2-.39.78-.39a7.73,7.73,0,0,0,1.75-.2c1-.19,1.27-1.26,1.41-2.67.25-2,.25-5.88.25-10.36Z" transform="translate(-13.38 -5.17)"/><path class="c" d="M328.46,165.68c0-7.39,0-8.75-.1-10.31s-.49-2.43-2.09-2.77a9.79,9.79,0,0,0-1.9-.15c-.53,0-.82-.09-.82-.43s.34-.44,1.07-.44c1.31,0,2.72,0,3.93,0s2.39.09,3.07.09c1.55,0,11.23,0,12.15,0a19.06,19.06,0,0,0,2.09-.3,5.53,5.53,0,0,1,.78-.19c.24,0,.29.19.29.44s-.24.92-.39,3.16c-.05.48-.14,2.62-.24,3.21-.05.24-.15.53-.49.53s-.43-.24-.43-.68a5.07,5.07,0,0,0-.3-1.75c-.34-.88-.82-1.46-3.25-1.75-.83-.1-5.93-.19-6.91-.19-.24,0-.34.14-.34.48v12.3c0,.34.05.54.34.54,1.07,0,6.66,0,7.78-.1s1.9-.24,2.33-.73.54-.63.78-.63.34.09.34.39-.19,1.07-.39,3.55c0,1-.19,2.91-.19,3.25s0,.93-.44.93a.39.39,0,0,1-.44-.44,10.93,10.93,0,0,0-.19-1.75c-.24-1-.92-1.7-2.72-1.9-.93-.09-5.74-.14-6.91-.14-.24,0-.29.19-.29.48v3.84c0,1.66-.05,6.13,0,7.54.1,3.35.88,4.08,5.84,4.08a12.43,12.43,0,0,0,4.57-.58c1.26-.58,1.84-1.61,2.18-3.6.1-.53.2-.73.54-.73s.39.39.39.88a38.41,38.41,0,0,1-.63,5.39c-.35,1.27-.78,1.27-2.63,1.27-3.65,0-6.32-.1-8.41-.15s-3.6-.14-5.06-.14c-.53,0-1.6,0-2.77,0s-2.38.1-3.35.1c-.63,0-1-.14-1-.48s.19-.39.77-.39a7.66,7.66,0,0,0,1.75-.2c1-.19,1.22-1.26,1.41-2.67.25-2,.25-5.88.25-10.36Z" transform="translate(-13.38 -5.17)"/><path class="c" d="M359.18,165.68c0-7.39,0-8.75-.09-10.31s-.49-2.43-2.09-2.77a9.79,9.79,0,0,0-1.9-.15c-.54,0-.83-.09-.83-.43s.34-.44,1.07-.44c2.58,0,5.64.14,6.66.14,1.66,0,5.35-.14,6.86-.14,3.06,0,6.32.29,8.94,2.09a8.42,8.42,0,0,1,3.31,6.66c0,3.6-1.51,6.9-6.42,10.89,4.33,5.44,7.68,9.77,10.55,12.78,2.72,2.82,4.72,3.17,5.45,3.31a7.39,7.39,0,0,0,1.36.15c.39,0,.58.14.58.39s-.34.48-.92.48h-4.62c-2.72,0-3.94-.24-5.2-.92-2.09-1.12-3.94-3.41-6.66-7.15-2-2.67-4.19-6-4.82-6.71a1,1,0,0,0-.87-.34l-4.23-.09c-.25,0-.39.09-.39.38v.68c0,4.53,0,8.37.24,10.41.15,1.41.44,2.48,1.9,2.67a21.8,21.8,0,0,0,2.38.2c.39,0,.58.14.58.39s-.34.48-1,.48c-2.82,0-6.42-.14-7.14-.14-.93,0-4,.14-5.94.14-.63,0-1-.14-1-.48s.2-.39.78-.39a7.73,7.73,0,0,0,1.75-.2c1-.19,1.22-1.26,1.41-2.67.24-2,.24-5.88.24-10.36Zm5.74,3.84c0,.53.1.73.44.87a12.81,12.81,0,0,0,3.69.49c1.95,0,2.58-.2,3.45-.83,1.46-1.07,2.87-3.3,2.87-7.29,0-6.9-4.57-8.9-7.44-8.9a10.32,10.32,0,0,0-2.57.2c-.34.1-.44.29-.44.68Z" transform="translate(-13.38 -5.17)"/><path class="c" d="M398.61,181.72c.1,3.79.73,5.06,1.7,5.4a7.78,7.78,0,0,0,2.53.34c.54,0,.83.09.83.39s-.44.48-1.12.48c-3.16,0-5.11-.14-6-.14-.44,0-2.72.14-5.25.14-.63,0-1.07-.05-1.07-.48s.29-.39.78-.39a8.47,8.47,0,0,0,2.19-.25c1.26-.39,1.45-1.8,1.5-6l.44-28.78c0-1,.15-1.66.63-1.66s1,.63,1.8,1.51c.58.63,8,8.56,15.07,15.6,3.31,3.31,9.87,10.31,10.7,11.09h.24l-.49-21.83c-.05-3-.48-3.89-1.65-4.37a7.75,7.75,0,0,0-2.58-.3c-.58,0-.77-.14-.77-.43s.53-.44,1.26-.44c2.53,0,4.86.14,5.88.14.54,0,2.38-.14,4.77-.14.63,0,1.11,0,1.11.44s-.29.43-.87.43a5.14,5.14,0,0,0-1.46.15c-1.36.39-1.75,1.41-1.8,4.13l-.53,30.68c0,1.07-.2,1.51-.63,1.51s-1.12-.54-1.66-1.07c-3.06-2.92-9.28-9.29-14.34-14.3-5.3-5.25-10.69-11.32-11.57-12.25h-.14Z" transform="translate(-13.38 -5.17)"/><path class="c" d="M443.87,175.64c-.24,0-.34.1-.44.39L440.81,183a9.4,9.4,0,0,0-.73,3c0,.87.44,1.51,1.95,1.51h.72c.59,0,.73.09.73.39s-.29.48-.82.48c-1.56,0-3.65-.14-5.16-.14-.53,0-3.21.14-5.73.14-.63,0-.93-.1-.93-.48s.2-.39.59-.39a14.34,14.34,0,0,0,1.5-.1c2.24-.29,3.16-2,4.14-4.38l12.2-30.53c.58-1.41.87-1.94,1.36-1.94s.73.44,1.22,1.56c1.16,2.67,8.94,22.5,12,29.89,1.85,4.38,3.26,5.06,4.28,5.3a10.39,10.39,0,0,0,2,.2c.39,0,.63,0,.63.39s-.43.48-2.23.48-5.3,0-9.19-.1c-.88,0-1.46,0-1.46-.38s.2-.39.68-.44a.8.8,0,0,0,.44-1.12L455.2,176a.47.47,0,0,0-.49-.34Zm9.92-2.43c.24,0,.29-.14.24-.29l-4.37-12c-.05-.19-.1-.43-.25-.43s-.24.24-.29.43l-4.47,12c0,.2,0,.34.19.34Z" transform="translate(-13.38 -5.17)"/><path class="c" d="M479.27,154.3l-7.25.2c-2.82.09-4,.34-4.71,1.41a5.64,5.64,0,0,0-.83,1.7c-.1.39-.24.58-.53.58s-.44-.24-.44-.78c0-.78.92-5.2,1-5.59.14-.63.29-.92.58-.92a11.77,11.77,0,0,0,2.09.58c1.41.15,3.26.24,4.86.24h19.26a23,23,0,0,0,3.35-.24,13.21,13.21,0,0,1,1.31-.24c.34,0,.39.29.39,1,0,1-.14,4.37-.14,5.64-.05.48-.15.78-.44.78s-.49-.25-.54-1l-.05-.53c-.09-1.26-1.41-2.63-5.73-2.72l-6.13-.15v19.93c0,4.48,0,8.32.25,10.41.14,1.36.43,2.43,1.89,2.62a19.92,19.92,0,0,0,2.48.2c.54,0,.78.14.78.39s-.39.48-.92.48c-3.21,0-6.28-.14-7.64-.14-1.12,0-4.18.14-6.12.14-.64,0-1-.14-1-.48s.2-.39.78-.39a7.73,7.73,0,0,0,1.75-.2c1-.19,1.27-1.26,1.41-2.67.25-2,.25-5.88.25-10.36Z" transform="translate(-13.38 -5.17)"/><path class="c" d="M507.32,165.68c0-7.39,0-8.75-.1-10.31s-.58-2.48-1.65-2.72a6.76,6.76,0,0,0-1.75-.2c-.49,0-.78-.09-.78-.48s.39-.39,1.17-.39c1.84,0,4.91.14,6.32.14,1.21,0,4.08-.14,5.93-.14.63,0,1,.1,1,.39s-.29.48-.78.48a8,8,0,0,0-1.46.15c-1.31.24-1.7,1.07-1.8,2.77s-.09,2.92-.09,10.31v8.55c0,4.72,0,8.56.19,10.65.15,1.31.49,2.19,1.94,2.38a20.07,20.07,0,0,0,2.48.2c.54,0,.78.14.78.39s-.39.48-.92.48c-3.21,0-6.27-.14-7.59-.14-1.11,0-4.18.14-6.12.14-.63,0-1-.14-1-.48s.19-.39.77-.39a7.83,7.83,0,0,0,1.76-.2c1-.19,1.26-1,1.4-2.43.25-2,.25-5.88.25-10.6Z" transform="translate(-13.38 -5.17)"/><path class="c" d="M523.51,170c0-8.32,5.49-19.06,20.07-19.06,12.11,0,19.64,7,19.64,18.18S555.45,189,543.1,189C529.15,189,523.51,178.56,523.51,170Zm32.91.92c0-10.89-6.27-17.65-14.25-17.65-5.59,0-11.95,3.11-11.95,15.22,0,10.11,5.59,18.13,14.92,18.13C548.54,186.58,556.42,184.93,556.42,170.88Z" transform="translate(-13.38 -5.17)"/><path class="c" d="M576.11,181.72c.1,3.79.73,5.06,1.7,5.4a7.78,7.78,0,0,0,2.53.34c.53,0,.83.09.83.39s-.44.48-1.12.48c-3.16,0-5.11-.14-6-.14-.44,0-2.72.14-5.25.14-.63,0-1.07-.05-1.07-.48s.29-.39.78-.39a8.35,8.35,0,0,0,2.18-.25c1.27-.39,1.46-1.8,1.51-6l.44-28.78c0-1,.14-1.66.63-1.66s1,.63,1.8,1.51c.58.63,8,8.56,15.07,15.6,3.31,3.31,9.87,10.31,10.7,11.09h.24l-.49-21.83c0-3-.48-3.89-1.65-4.37a7.75,7.75,0,0,0-2.58-.3c-.58,0-.78-.14-.78-.43s.54-.44,1.27-.44c2.53,0,4.86.14,5.88.14.54,0,2.38-.14,4.77-.14.63,0,1.11,0,1.11.44s-.29.43-.87.43a5.14,5.14,0,0,0-1.46.15c-1.36.39-1.75,1.41-1.8,4.13l-.53,30.68c0,1.07-.2,1.51-.63,1.51s-1.12-.54-1.66-1.07c-3.06-2.92-9.28-9.29-14.34-14.3-5.3-5.25-10.69-11.32-11.57-12.25h-.15Z" transform="translate(-13.38 -5.17)"/><path class="c" d="M621.37,175.64c-.24,0-.34.1-.44.39L618.31,183a9.4,9.4,0,0,0-.73,3c0,.87.44,1.51,1.94,1.51h.73c.59,0,.73.09.73.39s-.29.48-.82.48c-1.56,0-3.65-.14-5.16-.14-.53,0-3.21.14-5.73.14-.64,0-.93-.1-.93-.48s.2-.39.59-.39a14.34,14.34,0,0,0,1.5-.1c2.24-.29,3.16-2,4.14-4.38l12.2-30.53c.58-1.41.87-1.94,1.36-1.94s.73.44,1.21,1.56c1.17,2.67,8.95,22.5,12.06,29.89,1.85,4.38,3.26,5.06,4.28,5.3a10.39,10.39,0,0,0,2,.2c.39,0,.63,0,.63.39s-.43.48-2.23.48-5.3,0-9.19-.1c-.88,0-1.46,0-1.46-.38s.19-.39.68-.44a.8.8,0,0,0,.44-1.12L632.7,176a.47.47,0,0,0-.49-.34Zm9.92-2.43c.24,0,.29-.14.24-.29l-4.37-12c0-.19-.1-.43-.25-.43s-.24.24-.29.43l-4.47,12c0,.2,0,.34.19.34Z" transform="translate(-13.38 -5.17)"/><path class="c" d="M659.54,174.23c0,6.23,0,9.58,1,10.46.82.72,2.09,1.06,5.88,1.06,2.57,0,4.47,0,5.69-1.36a6.13,6.13,0,0,0,1.26-2.91c.05-.44.15-.73.53-.73s.39.24.39.82a38.41,38.41,0,0,1-.73,5.6c-.29,1.06-.53,1.31-3.06,1.31-3.5,0-6-.1-8.21-.15s-3.94-.14-5.93-.14c-.54,0-1.61,0-2.78,0s-2.38.1-3.35.1c-.63,0-1-.14-1-.48s.19-.39.77-.39a7.83,7.83,0,0,0,1.76-.2c1-.19,1.21-1.26,1.4-2.67.25-2,.25-5.88.25-10.36v-8.55c0-7.39,0-8.75-.1-10.31s-.48-2.43-2.09-2.77a7,7,0,0,0-1.6-.15c-.54,0-.83-.09-.83-.43s.34-.44,1.07-.44c2.28,0,5.35.14,6.66.14s4.72-.14,6.61-.14c.68,0,1,.1,1,.44s-.29.43-.87.43a12.56,12.56,0,0,0-1.9.15c-1.31.24-1.7,1.07-1.8,2.77s-.09,2.92-.09,10.31Z" transform="translate(-13.38 -5.17)"/><path class="c" d="M703.53,174.23c0,6.23,0,9.58,1,10.46.83.72,2.09,1.06,5.89,1.06,2.57,0,4.47,0,5.68-1.36a6.05,6.05,0,0,0,1.27-2.91c.05-.44.14-.73.53-.73s.39.24.39.82a38.41,38.41,0,0,1-.73,5.6c-.29,1.06-.53,1.31-3.06,1.31-3.5,0-6-.1-8.22-.15s-3.93-.14-5.93-.14c-.53,0-1.6,0-2.77,0s-2.38.1-3.35.1c-.63,0-1-.14-1-.48s.19-.39.77-.39a7.66,7.66,0,0,0,1.75-.2c1-.19,1.22-1.26,1.41-2.67.25-2,.25-5.88.25-10.36v-8.55c0-7.39,0-8.75-.1-10.31s-.49-2.43-2.09-2.77a7,7,0,0,0-1.61-.15c-.53,0-.82-.09-.82-.43s.34-.44,1.07-.44c2.28,0,5.34.14,6.66.14,1.16,0,4.71-.14,6.61-.14.68,0,1,.1,1,.44s-.29.43-.87.43a12.56,12.56,0,0,0-1.9.15c-1.31.24-1.7,1.07-1.8,2.77s-.1,2.92-.1,10.31Z" transform="translate(-13.38 -5.17)"/><path class="c" d="M731,154.3l-7.24.2c-2.82.09-4,.34-4.72,1.41a5.56,5.56,0,0,0-.82,1.7c-.1.39-.25.58-.54.58s-.44-.24-.44-.78c0-.78.93-5.2,1-5.59.15-.63.3-.92.59-.92a11.49,11.49,0,0,0,2.09.58c1.41.15,3.26.24,4.86.24h19.25a23,23,0,0,0,3.36-.24,12.22,12.22,0,0,1,1.31-.24c.34,0,.39.29.39,1,0,1-.15,4.37-.15,5.64-.05.48-.14.78-.44.78s-.48-.25-.53-1l0-.53c-.1-1.26-1.41-2.63-5.74-2.72l-6.12-.15v19.93c0,4.48,0,8.32.24,10.41.15,1.36.44,2.43,1.9,2.62a19.92,19.92,0,0,0,2.48.2c.53,0,.77.14.77.39s-.38.48-.92.48c-3.21,0-6.27-.14-7.63-.14-1.12,0-4.18.14-6.13.14-.63,0-1-.14-1-.48s.2-.39.78-.39a7.73,7.73,0,0,0,1.75-.2c1-.19,1.26-1.26,1.41-2.67.24-2,.24-5.88.24-10.36Z" transform="translate(-13.38 -5.17)"/><path class="c" d="M759.05,165.68c0-7.39,0-8.75-.09-10.31s-.49-2.43-2.09-2.77a9.79,9.79,0,0,0-1.9-.15c-.53,0-.83-.09-.83-.43s.34-.44,1.07-.44c2.58,0,5.64.14,7,.14s4.57-.14,7.49-.14c6.08,0,14.2,0,19.5,5.54a17.37,17.37,0,0,1,4.71,12.35,19.32,19.32,0,0,1-5.3,13.56c-2.23,2.29-7.29,5.74-16.28,5.74-1.75,0-3.75-.15-5.59-.29s-3.55-.29-4.77-.29c-.53,0-1.6,0-2.77,0s-2.38.1-3.35.1c-.64,0-1-.14-1-.48s.2-.39.78-.39a7.73,7.73,0,0,0,1.75-.2c1-.19,1.22-1.26,1.41-2.67.24-2,.24-5.88.24-10.36Zm6.08,5.34c0,5.16,0,8.9.1,9.82,0,1.22.14,3.16.53,3.7.63.92,2.53,1.94,6.37,1.94,5,0,8.27-1,11.18-3.5,3.11-2.67,4.09-7.09,4.09-12.1,0-6.17-2.58-10.16-4.67-12.15-4.47-4.28-10-4.87-13.81-4.87a13.23,13.23,0,0,0-3.16.34.9.9,0,0,0-.58,1c0,1.65,0,5.88,0,9.72Z" transform="translate(-13.38 -5.17)"/></svg>